<svg width="210" height="70" viewBox="0 0 210 70" fill="none" xmlns="http://www.w3.org/2000/svg">
    <path d="M0 0H69.9542V70H0V0Z" fill="#091326"/>
    <path d="M54.1346 38.2667H59.8148V38.8547H57.497L50.6089 61.46H49.4989L43.3943 44.5713L38.269 61.46H37.159L28.9977 38.8547H26.6799V38.2667H35.5594V38.8547H32.8172L39.1504 56.4293L43.0678 43.624L41.3376 38.8547H39.0198V38.2667H47.8993V38.8547H45.1571L51.5229 56.4293L56.8768 38.8547H54.1346V38.2667Z" fill="#F8F7F4"/>
    <path d="M19.2094 47.054C25.9669 49.6347 27.6318 51.856 27.6318 54.9267C27.6318 58.7813 24.0735 61.46 18.9156 61.46C17.9362 61.46 16.7936 61.3293 15.9448 61.1333H12.9415L10.4604 54.11H11.048C12.6477 58.6507 15.5204 60.872 18.687 60.872C22.2454 60.872 24.5305 59.598 24.5305 56.3967C24.5305 53.1953 21.7557 52.444 17.8383 50.7127C13.4638 48.818 11.5051 46.858 11.5051 43.5587C11.5051 40.194 14.639 37.94 18.6217 37.94C19.6011 37.94 20.5152 38.038 21.364 38.2667H24.1714L26.2607 44.2447H25.7058C24.302 40.4553 21.9842 38.528 18.8176 38.528C15.4552 38.528 14.1167 40.782 14.1167 42.252C14.1167 44.0487 15.2266 45.5513 19.2094 47.054Z" fill="#F8F7F4"/>
    <path d="M57.6918 34.405H60.42V35H50.1367V34.405H53.2846L45.9744 22.155L42.6866 26.075V34.405H45.6247V35H35.936V34.405H38.8741V11.13H35.936V10.5H45.6247V11.13H42.6866V25.2L54.4739 11.13H51.4658V10.5H58.1115V11.13H55.1734L48.5278 19.075L57.6918 34.405Z" fill="#F8F7F4"/>
    <path d="M26.6295 10.5H33.1352V11.13H30.1972V27.195C30.1972 32.725 26.8394 35.35 22.0825 35.35C17.1857 35.35 13.1633 33.495 13.1633 27.265V11.13H10.2252V10.5H19.9139V11.13H16.9758V27.055C16.9758 32.27 18.3749 34.72 22.4322 34.72C27.0142 34.72 29.5676 31.955 29.5676 26.95V11.13H26.6295V10.5Z" fill="#F8F7F4"/>
    <path d="M175.989 56.7444H174.47V51.7016C174.47 50.746 174.32 50.0494 174.021 49.6119C173.734 49.1629 173.291 48.9384 172.692 48.9384C172.278 48.9384 171.864 49.042 171.45 49.2492C171.047 49.4565 170.684 49.7386 170.362 50.0955C170.052 50.4409 169.827 50.8438 169.689 51.3044V56.7444H168.17V47.7295H169.551V49.6637C169.793 49.2377 170.103 48.8693 170.483 48.5584C170.863 48.2476 171.294 48.0058 171.778 47.8331C172.261 47.6604 172.767 47.574 173.296 47.574C173.814 47.574 174.246 47.6719 174.591 47.8676C174.947 48.0518 175.224 48.3167 175.419 48.6621C175.626 48.9959 175.77 49.3932 175.851 49.8537C175.943 50.3142 175.989 50.8151 175.989 51.3562V56.7444Z" fill="#091326"/>
    <path d="M161.774 56.9171C161.095 56.9171 160.479 56.7962 159.927 56.5545C159.375 56.3012 158.897 55.9615 158.495 55.5355C158.092 55.098 157.781 54.5972 157.563 54.033C157.344 53.4689 157.235 52.8759 157.235 52.2542C157.235 51.621 157.344 51.0223 157.563 50.4581C157.781 49.894 158.092 49.3989 158.495 48.9729C158.897 48.5354 159.375 48.1958 159.927 47.954C160.491 47.7007 161.106 47.574 161.774 47.574C162.453 47.574 163.068 47.7007 163.62 47.954C164.173 48.1958 164.65 48.5354 165.053 48.9729C165.467 49.3989 165.784 49.894 166.002 50.4581C166.221 51.0223 166.33 51.621 166.33 52.2542C166.33 52.8759 166.221 53.4689 166.002 54.033C165.784 54.5972 165.473 55.098 165.07 55.5355C164.668 55.9615 164.184 56.3012 163.62 56.5545C163.068 56.7962 162.453 56.9171 161.774 56.9171ZM158.788 52.2715C158.788 52.8932 158.92 53.4574 159.185 53.964C159.461 54.4705 159.824 54.8735 160.272 55.1729C160.721 55.4607 161.222 55.6046 161.774 55.6046C162.326 55.6046 162.827 55.4549 163.275 55.1556C163.736 54.8562 164.098 54.4533 164.363 53.9467C164.639 53.4286 164.777 52.8587 164.777 52.237C164.777 51.6152 164.639 51.0511 164.363 50.5445C164.098 50.0379 163.736 49.6349 163.275 49.3356C162.827 49.0362 162.326 48.8866 161.774 48.8866C161.222 48.8866 160.721 49.042 160.272 49.3529C159.824 49.6522 159.461 50.0552 159.185 50.5618C158.92 51.0683 158.788 51.6383 158.788 52.2715Z" fill="#091326"/>
    <path d="M153.861 56.7444V47.7295H155.38V56.7444H153.861ZM153.861 46.037V44.1373H155.38V46.037H153.861Z" fill="#091326"/>
    <path d="M152.454 56.2954C152.327 56.353 152.154 56.4278 151.936 56.5199C151.717 56.612 151.464 56.6926 151.176 56.7617C150.889 56.8308 150.584 56.8653 150.262 56.8653C149.893 56.8653 149.554 56.802 149.243 56.6754C148.933 56.5372 148.685 56.3299 148.501 56.0536C148.317 55.7658 148.225 55.4089 148.225 54.9829V48.9211H147V47.7295H148.225V44.7245H149.744V47.7295H151.763V48.9211H149.744V54.5166C149.767 54.839 149.876 55.0808 150.072 55.2419C150.267 55.3916 150.498 55.4665 150.762 55.4665C151.061 55.4665 151.337 55.4146 151.591 55.311C151.844 55.2074 152.011 55.1326 152.091 55.0865L152.454 56.2954Z" fill="#091326"/>
    <path d="M137.597 54.1367C137.597 53.561 137.758 53.0659 138.08 52.6514C138.414 52.2254 138.869 51.8973 139.444 51.667C140.019 51.4368 140.686 51.3216 141.446 51.3216C141.849 51.3216 142.274 51.3562 142.723 51.4253C143.172 51.4828 143.569 51.5749 143.914 51.7016V51.0453C143.914 50.3545 143.707 49.8134 143.292 49.4219C142.878 49.019 142.291 48.8175 141.532 48.8175C141.037 48.8175 140.56 48.9096 140.1 49.0938C139.651 49.2665 139.173 49.5198 138.667 49.8537L138.115 48.7829C138.702 48.38 139.288 48.0806 139.875 47.8849C140.462 47.6777 141.072 47.574 141.705 47.574C142.855 47.574 143.764 47.8964 144.432 48.5412C145.099 49.1744 145.433 50.0609 145.433 51.2007V55.0174C145.433 55.2016 145.467 55.3398 145.536 55.4319C145.617 55.5125 145.743 55.5586 145.916 55.5701V56.7444C145.766 56.7675 145.634 56.7847 145.519 56.7962C145.415 56.8078 145.329 56.8135 145.26 56.8135C144.903 56.8135 144.633 56.7157 144.449 56.5199C144.276 56.3242 144.178 56.117 144.155 55.8982L144.121 55.3283C143.73 55.8349 143.218 56.2263 142.585 56.5027C141.952 56.779 141.325 56.9171 140.704 56.9171C140.105 56.9171 139.57 56.7962 139.099 56.5545C138.627 56.3012 138.259 55.9673 137.994 55.5528C137.729 55.1268 137.597 54.6548 137.597 54.1367ZM143.465 54.7757C143.603 54.6145 143.712 54.4533 143.793 54.2921C143.874 54.1194 143.914 53.9755 143.914 53.8603V52.7378C143.557 52.5996 143.183 52.496 142.792 52.4269C142.401 52.3463 142.015 52.306 141.636 52.306C140.865 52.306 140.238 52.4615 139.754 52.7723C139.283 53.0717 139.047 53.4862 139.047 54.0158C139.047 54.3036 139.122 54.5857 139.271 54.862C139.432 55.1268 139.662 55.3456 139.962 55.5183C140.272 55.691 140.652 55.7773 141.101 55.7773C141.572 55.7773 142.021 55.6852 142.447 55.501C142.873 55.3053 143.212 55.0635 143.465 54.7757Z" fill="#091326"/>
    <path d="M134.327 56.7444V47.7295H135.846V56.7444H134.327ZM134.327 46.037V44.1373H135.846V46.037H134.327Z" fill="#091326"/>
    <path d="M128.758 56.9171C128.079 56.9171 127.457 56.7962 126.894 56.5545C126.341 56.3012 125.858 55.9558 125.444 55.5183C125.041 55.0808 124.725 54.5799 124.495 54.0158C124.276 53.4516 124.167 52.8529 124.167 52.2197C124.167 51.3677 124.357 50.5905 124.736 49.8882C125.116 49.1859 125.651 48.6275 126.341 48.213C127.032 47.787 127.831 47.574 128.74 47.574C129.626 47.574 130.397 47.7755 131.053 48.1785C131.72 48.5699 132.215 49.0996 132.537 49.7673L131.053 50.2336C130.823 49.8076 130.501 49.4795 130.086 49.2492C129.672 49.0075 129.212 48.8866 128.706 48.8866C128.154 48.8866 127.647 49.0305 127.187 49.3183C126.738 49.6061 126.382 50.0034 126.117 50.51C125.852 51.005 125.72 51.5749 125.72 52.2197C125.72 52.8529 125.852 53.4286 126.117 53.9467C126.393 54.4533 126.756 54.8562 127.204 55.1556C127.665 55.4549 128.171 55.6046 128.723 55.6046C129.08 55.6046 129.419 55.5413 129.741 55.4146C130.075 55.288 130.363 55.1211 130.604 54.9138C130.857 54.6951 131.03 54.459 131.122 54.2057L132.606 54.6548C132.422 55.0923 132.14 55.4837 131.761 55.8291C131.392 56.163 130.949 56.4278 130.432 56.6235C129.925 56.8193 129.367 56.9171 128.758 56.9171Z" fill="#091326"/>
    <path d="M118.374 56.9171C117.695 56.9171 117.08 56.7962 116.527 56.5545C115.975 56.3012 115.498 55.9615 115.095 55.5355C114.692 55.098 114.382 54.5972 114.163 54.033C113.944 53.4689 113.835 52.8759 113.835 52.2542C113.835 51.621 113.944 51.0223 114.163 50.4581C114.382 49.894 114.692 49.3989 115.095 48.9729C115.498 48.5354 115.975 48.1958 116.527 47.954C117.091 47.7007 117.707 47.574 118.374 47.574C119.053 47.574 119.669 47.7007 120.221 47.954C120.773 48.1958 121.251 48.5354 121.653 48.9729C122.067 49.3989 122.384 49.894 122.603 50.4581C122.821 51.0223 122.93 51.621 122.93 52.2542C122.93 52.8759 122.821 53.4689 122.603 54.033C122.384 54.5972 122.073 55.098 121.671 55.5355C121.268 55.9615 120.785 56.3012 120.221 56.5545C119.669 56.7962 119.053 56.9171 118.374 56.9171ZM115.388 52.2715C115.388 52.8932 115.521 53.4574 115.785 53.964C116.061 54.4705 116.424 54.8735 116.873 55.1729C117.321 55.4607 117.822 55.6046 118.374 55.6046C118.926 55.6046 119.427 55.4549 119.876 55.1556C120.336 54.8562 120.698 54.4533 120.963 53.9467C121.239 53.4286 121.377 52.8587 121.377 52.237C121.377 51.6152 121.239 51.0511 120.963 50.5445C120.698 50.0379 120.336 49.6349 119.876 49.3356C119.427 49.0362 118.926 48.8866 118.374 48.8866C117.822 48.8866 117.321 49.042 116.873 49.3529C116.424 49.6522 116.061 50.0552 115.785 50.5618C115.521 51.0683 115.388 51.6383 115.388 52.2715Z" fill="#091326"/>
    <path d="M109.101 56.9171C108.353 56.9171 107.652 56.7962 106.996 56.5545C106.34 56.3012 105.776 55.927 105.304 55.4319L105.891 54.3612C106.409 54.8447 106.927 55.1901 107.444 55.3974C107.962 55.6046 108.492 55.7082 109.032 55.7082C109.654 55.7082 110.16 55.5931 110.551 55.3628C110.942 55.121 111.138 54.7699 111.138 54.3094C111.138 53.9755 111.034 53.7279 110.827 53.5667C110.632 53.4056 110.35 53.2732 109.982 53.1695C109.613 53.0544 109.176 52.9278 108.67 52.7896C108.049 52.6054 107.525 52.4097 107.099 52.2024C106.674 51.9952 106.351 51.7361 106.133 51.4253C105.914 51.1144 105.805 50.7229 105.805 50.2509C105.805 49.6752 105.954 49.1917 106.254 48.8002C106.553 48.3973 106.961 48.0921 107.479 47.8849C108.008 47.6777 108.607 47.574 109.274 47.574C109.941 47.574 110.545 47.6777 111.086 47.8849C111.627 48.0921 112.093 48.3973 112.484 48.8002L111.794 49.8537C111.437 49.4853 111.046 49.2147 110.62 49.042C110.194 48.8578 109.717 48.7657 109.188 48.7657C108.877 48.7657 108.572 48.806 108.273 48.8866C107.974 48.9556 107.726 49.0881 107.531 49.2838C107.335 49.468 107.237 49.7328 107.237 50.0782C107.237 50.366 107.312 50.5963 107.462 50.769C107.623 50.9302 107.853 51.0683 108.152 51.1835C108.463 51.2986 108.837 51.4253 109.274 51.5634C109.953 51.7591 110.54 51.9549 111.034 52.1506C111.541 52.3463 111.932 52.5996 112.208 52.9105C112.484 53.2213 112.622 53.6531 112.622 54.2057C112.622 55.0577 112.3 55.7255 111.656 56.2091C111.011 56.6811 110.16 56.9171 109.101 56.9171Z" fill="#091326"/>
    <path d="M100.674 56.9171C99.9263 56.9171 99.2245 56.7962 98.5687 56.5545C97.9128 56.3012 97.349 55.927 96.8773 55.4319L97.4641 54.3612C97.9819 54.8447 98.4996 55.1901 99.0174 55.3974C99.5351 55.6046 100.064 55.7082 100.605 55.7082C101.226 55.7082 101.733 55.5931 102.124 55.3628C102.515 55.121 102.711 54.7699 102.711 54.3094C102.711 53.9755 102.607 53.7279 102.4 53.5667C102.204 53.4056 101.923 53.2732 101.554 53.1695C101.186 53.0544 100.749 52.9278 100.243 52.7896C99.6214 52.6054 99.0979 52.4097 98.6722 52.2024C98.2465 51.9952 97.9243 51.7361 97.7057 51.4253C97.4871 51.1144 97.3778 50.7229 97.3778 50.2509C97.3778 49.6752 97.5274 49.1917 97.8265 48.8002C98.1257 48.3973 98.5341 48.0921 99.0519 47.8849C99.5812 47.6777 100.179 47.574 100.847 47.574C101.514 47.574 102.118 47.6777 102.659 47.8849C103.2 48.0921 103.666 48.3973 104.057 48.8002L103.367 49.8537C103.01 49.4853 102.619 49.2147 102.193 49.042C101.767 48.8578 101.29 48.7657 100.761 48.7657C100.45 48.7657 100.145 48.806 99.8458 48.8866C99.5466 48.9556 99.2993 49.0881 99.1037 49.2838C98.9081 49.468 98.8103 49.7328 98.8103 50.0782C98.8103 50.366 98.8851 50.5963 99.0346 50.769C99.1957 50.9302 99.4258 51.0683 99.725 51.1835C100.036 51.2986 100.41 51.4253 100.847 51.5634C101.526 51.7591 102.112 51.9549 102.607 52.1506C103.113 52.3463 103.505 52.5996 103.781 52.9105C104.057 53.2213 104.195 53.6531 104.195 54.2057C104.195 55.0577 103.873 55.7255 103.229 56.2091C102.584 56.6811 101.733 56.9171 100.674 56.9171Z" fill="#091326"/>
    <path d="M90.0093 44.4827H91.3209L96.326 56.7444H94.6691L93.2194 53.1523H88.0763L86.6438 56.7444H84.987L90.0093 44.4827ZM92.8742 51.9434L90.6651 46.2788L88.3869 51.9434H92.8742Z" fill="#091326"/>
    <path d="M205.626 37.9201C204.878 37.9201 204.176 37.7992 203.52 37.5574C202.864 37.3041 202.3 36.9299 201.829 36.4349L202.415 35.3641C202.933 35.8477 203.451 36.1931 203.969 36.4003C204.486 36.6076 205.016 36.7112 205.557 36.7112C206.178 36.7112 206.684 36.596 207.075 36.3658C207.466 36.124 207.662 35.7728 207.662 35.3123C207.662 34.9784 207.559 34.7309 207.351 34.5697C207.156 34.4085 206.874 34.2761 206.506 34.1725C206.138 34.0574 205.7 33.9307 205.194 33.7925C204.573 33.6083 204.049 33.4126 203.624 33.2054C203.198 32.9981 202.876 32.7391 202.657 32.4282C202.438 32.1174 202.329 31.7259 202.329 31.2538C202.329 30.6782 202.479 30.1946 202.778 29.8032C203.077 29.4002 203.485 29.0951 204.003 28.8879C204.533 28.6806 205.131 28.577 205.798 28.577C206.465 28.577 207.07 28.6806 207.61 28.8879C208.151 29.0951 208.617 29.4002 209.008 29.8032L208.318 30.8566C207.961 30.4882 207.57 30.2176 207.144 30.0449C206.719 29.8607 206.241 29.7686 205.712 29.7686C205.401 29.7686 205.096 29.8089 204.797 29.8895C204.498 29.9586 204.251 30.091 204.055 30.2867C203.859 30.4709 203.762 30.7357 203.762 31.0811C203.762 31.369 203.836 31.5992 203.986 31.7719C204.147 31.9331 204.377 32.0713 204.676 32.1864C204.987 32.3016 205.361 32.4282 205.798 32.5664C206.477 32.7621 207.064 32.9578 207.559 33.1536C208.065 33.3493 208.456 33.6026 208.732 33.9134C209.008 34.2243 209.146 34.656 209.146 35.2087C209.146 36.0607 208.824 36.7285 208.18 37.212C207.536 37.6841 206.684 37.9201 205.626 37.9201Z" fill="#091326"/>
    <path d="M197.198 37.9201C196.451 37.9201 195.749 37.7992 195.093 37.5574C194.437 37.3041 193.873 36.9299 193.402 36.4349L193.988 35.3641C194.506 35.8477 195.024 36.1931 195.542 36.4003C196.059 36.6076 196.589 36.7112 197.129 36.7112C197.751 36.7112 198.257 36.596 198.648 36.3658C199.039 36.124 199.235 35.7728 199.235 35.3123C199.235 34.9784 199.131 34.7309 198.924 34.5697C198.729 34.4085 198.447 34.2761 198.079 34.1725C197.71 34.0574 197.273 33.9307 196.767 33.7925C196.146 33.6083 195.622 33.4126 195.196 33.2054C194.771 32.9981 194.449 32.7391 194.23 32.4282C194.011 32.1174 193.902 31.7259 193.902 31.2538C193.902 30.6782 194.052 30.1946 194.351 29.8032C194.65 29.4002 195.058 29.0951 195.576 28.8879C196.105 28.6806 196.704 28.577 197.371 28.577C198.038 28.577 198.642 28.6806 199.183 28.8879C199.724 29.0951 200.19 29.4002 200.581 29.8032L199.891 30.8566C199.534 30.4882 199.143 30.2176 198.717 30.0449C198.291 29.8607 197.814 29.7686 197.285 29.7686C196.974 29.7686 196.669 29.8089 196.37 29.8895C196.071 29.9586 195.823 30.091 195.628 30.2867C195.432 30.4709 195.334 30.7357 195.334 31.0811C195.334 31.369 195.409 31.5992 195.559 31.7719C195.72 31.9331 195.95 32.0713 196.249 32.1864C196.56 32.3016 196.934 32.4282 197.371 32.5664C198.05 32.7621 198.637 32.9578 199.131 33.1536C199.638 33.3493 200.029 33.6026 200.305 33.9134C200.581 34.2243 200.719 34.656 200.719 35.2087C200.719 36.0607 200.397 36.7285 199.753 37.212C199.108 37.6841 198.257 37.9201 197.198 37.9201Z" fill="#091326"/>
    <path d="M187.899 37.9201C187.22 37.9201 186.599 37.7992 186.035 37.5574C185.483 37.3041 185 36.9645 184.585 36.5385C184.183 36.101 183.866 35.6001 183.636 35.036C183.418 34.4718 183.308 33.8731 183.308 33.2399C183.308 32.3879 183.504 31.6108 183.895 30.9084C184.286 30.2061 184.827 29.642 185.517 29.216C186.219 28.79 187.019 28.577 187.916 28.577C188.825 28.577 189.613 28.7957 190.281 29.2333C190.96 29.6592 191.483 30.2234 191.851 30.9257C192.231 31.6165 192.421 32.3649 192.421 33.1708C192.421 33.286 192.415 33.4011 192.404 33.5162C192.404 33.6198 192.398 33.7004 192.386 33.758H184.913C184.959 34.3452 185.12 34.869 185.397 35.3296C185.684 35.7786 186.052 36.1355 186.501 36.4003C186.95 36.6536 187.433 36.7803 187.951 36.7803C188.503 36.7803 189.021 36.6421 189.504 36.3658C189.999 36.0895 190.338 35.7268 190.522 35.2778L191.834 35.6404C191.638 36.0779 191.345 36.4694 190.954 36.8148C190.574 37.1602 190.12 37.4308 189.59 37.6265C189.073 37.8222 188.509 37.9201 187.899 37.9201ZM184.862 32.7045H191.006C190.96 32.1174 190.793 31.5992 190.505 31.1502C190.217 30.7012 189.849 30.35 189.401 30.0968C188.952 29.8435 188.457 29.7168 187.916 29.7168C187.387 29.7168 186.898 29.8435 186.449 30.0968C186.001 30.35 185.632 30.7012 185.345 31.1502C185.069 31.5992 184.908 32.1174 184.862 32.7045Z" fill="#091326"/>
    <path d="M181.551 37.7474H180.032V32.7045C180.032 31.7489 179.882 31.0524 179.583 30.6149C179.295 30.1658 178.852 29.9413 178.254 29.9413C177.84 29.9413 177.426 30.0449 177.011 30.2522C176.609 30.4594 176.246 30.7415 175.924 31.0984C175.614 31.4438 175.389 31.8468 175.251 32.3073V37.7474H173.732V28.7324H175.113V30.6667C175.355 30.2407 175.665 29.8722 176.045 29.5614C176.425 29.2505 176.856 29.0087 177.339 28.836C177.823 28.6633 178.329 28.577 178.858 28.577C179.376 28.577 179.807 28.6749 180.153 28.8706C180.509 29.0548 180.785 29.3196 180.981 29.665C181.188 29.9989 181.332 30.3961 181.412 30.8566C181.505 31.3172 181.551 31.818 181.551 32.3591V37.7474Z" fill="#091326"/>
    <path d="M168.829 25.1403H170.347V35.4159C170.347 35.911 170.416 36.2161 170.554 36.3312C170.693 36.4464 170.859 36.5039 171.055 36.5039C171.297 36.5039 171.527 36.4809 171.745 36.4349C171.964 36.3773 172.148 36.3197 172.298 36.2622L172.539 37.5056C172.286 37.6092 171.987 37.6956 171.642 37.7647C171.297 37.8337 170.992 37.8683 170.727 37.8683C170.14 37.8683 169.674 37.7013 169.329 37.3674C168.995 37.0336 168.829 36.5673 168.829 35.9686V25.1403Z" fill="#091326"/>
    <path d="M163.89 25.1403H165.409V35.4159C165.409 35.911 165.478 36.2161 165.616 36.3312C165.754 36.4464 165.921 36.5039 166.117 36.5039C166.358 36.5039 166.588 36.4809 166.807 36.4349C167.026 36.3773 167.21 36.3197 167.359 36.2622L167.601 37.5056C167.348 37.6092 167.049 37.6956 166.703 37.7647C166.358 37.8337 166.053 37.8683 165.789 37.8683C165.202 37.8683 164.736 37.7013 164.391 37.3674C164.057 37.0336 163.89 36.5673 163.89 35.9686V25.1403Z" fill="#091326"/>
    <path d="M157.646 37.9201C156.967 37.9201 156.346 37.7992 155.782 37.5574C155.229 37.3041 154.746 36.9645 154.332 36.5385C153.929 36.101 153.613 35.6001 153.383 35.036C153.164 34.4718 153.055 33.8731 153.055 33.2399C153.055 32.3879 153.251 31.6108 153.642 30.9084C154.033 30.2061 154.574 29.642 155.264 29.216C155.966 28.79 156.766 28.577 157.663 28.577C158.572 28.577 159.36 28.7957 160.027 29.2333C160.706 29.6592 161.23 30.2234 161.598 30.9257C161.978 31.6165 162.168 32.3649 162.168 33.1708C162.168 33.286 162.162 33.4011 162.15 33.5162C162.15 33.6198 162.145 33.7004 162.133 33.758H154.66C154.706 34.3452 154.867 34.869 155.143 35.3296C155.431 35.7786 155.799 36.1355 156.248 36.4003C156.697 36.6536 157.18 36.7803 157.698 36.7803C158.25 36.7803 158.768 36.6421 159.251 36.3658C159.746 36.0895 160.085 35.7268 160.269 35.2778L161.581 35.6404C161.385 36.0779 161.092 36.4694 160.701 36.8148C160.321 37.1602 159.866 37.4308 159.337 37.6265C158.819 37.8222 158.256 37.9201 157.646 37.9201ZM154.608 32.7045H160.752C160.706 32.1174 160.539 31.5992 160.252 31.1502C159.964 30.7012 159.596 30.35 159.147 30.0968C158.699 29.8435 158.204 29.7168 157.663 29.7168C157.134 29.7168 156.645 29.8435 156.196 30.0968C155.747 30.35 155.379 30.7012 155.091 31.1502C154.815 31.5992 154.654 32.1174 154.608 32.7045Z" fill="#091326"/>
    <path d="M141.466 25.5547H142.933L144.555 29.8204L146.195 25.5547H147.662L145.539 30.8912L147.645 35.9513L151.787 25.4857H153.478L148.352 37.7474H147.006L144.573 31.9619L142.122 37.7474H140.776L135.667 25.4857H137.341L141.501 35.9513L143.589 30.8912L141.466 25.5547Z" fill="#091326"/>
    <path d="M129.671 37.7474L123.665 31.4093C123.17 30.8797 122.773 30.4306 122.474 30.0622C122.186 29.6823 121.979 29.3426 121.853 29.0433C121.726 28.7324 121.663 28.4158 121.663 28.0934C121.663 27.5638 121.801 27.0918 122.077 26.6773C122.353 26.2628 122.727 25.9347 123.199 25.6929C123.682 25.4511 124.223 25.3302 124.821 25.3302C125.373 25.3302 125.874 25.4338 126.323 25.6411C126.771 25.8368 127.128 26.1246 127.393 26.5046C127.669 26.873 127.807 27.3163 127.807 27.8344C127.807 28.364 127.663 28.836 127.376 29.2505C127.088 29.6535 126.708 30.0334 126.236 30.3903C125.776 30.7357 125.264 31.0869 124.7 31.4438C124.24 31.7432 123.82 32.0483 123.441 32.3591C123.072 32.67 122.779 33.0039 122.56 33.3608C122.353 33.7062 122.25 34.0919 122.25 34.5179C122.25 34.9784 122.376 35.3756 122.629 35.7095C122.882 36.0319 123.21 36.2794 123.613 36.4521C124.027 36.6248 124.459 36.7112 124.908 36.7112C125.494 36.7112 126.041 36.5788 126.547 36.314C127.053 36.0377 127.496 35.6577 127.876 35.1741C128.267 34.6906 128.566 34.1322 128.773 33.499C128.992 32.8542 129.101 32.1634 129.101 31.4265H130.361C130.361 32.3706 130.212 33.2399 129.913 34.0343C129.625 34.8172 129.222 35.5023 128.704 36.0895C128.198 36.6651 127.606 37.1141 126.927 37.4365C126.248 37.7589 125.523 37.9201 124.752 37.9201C124.004 37.9201 123.325 37.7704 122.716 37.4711C122.117 37.1717 121.646 36.7688 121.3 36.2622C120.955 35.7441 120.783 35.1569 120.783 34.5006C120.783 33.8674 120.926 33.3147 121.214 32.8427C121.513 32.3591 121.893 31.9331 122.353 31.5647C122.825 31.1848 123.308 30.8394 123.803 30.5285C124.309 30.2061 124.758 29.9125 125.149 29.6477C125.54 29.3714 125.845 29.0893 126.064 28.8015C126.294 28.5137 126.409 28.2028 126.409 27.8689C126.409 27.466 126.259 27.1378 125.96 26.8845C125.661 26.6197 125.281 26.4873 124.821 26.4873C124.476 26.4873 124.171 26.5622 123.907 26.7118C123.642 26.85 123.435 27.04 123.285 27.2817C123.136 27.512 123.061 27.7711 123.061 28.0589C123.061 28.2431 123.107 28.4331 123.199 28.6288C123.291 28.8245 123.464 29.0721 123.717 29.3714C123.981 29.6708 124.349 30.0737 124.821 30.5803L131.673 37.7474H129.671Z" fill="#091326"/>
    <path d="M106.602 35.1396C106.602 34.5639 106.763 34.0689 107.085 33.6544C107.419 33.2284 107.874 32.9003 108.449 32.67C109.024 32.4397 109.692 32.3246 110.451 32.3246C110.854 32.3246 111.279 32.3591 111.728 32.4282C112.177 32.4858 112.574 32.5779 112.919 32.7045V32.0483C112.919 31.3575 112.712 30.8163 112.298 30.4249C111.883 30.0219 111.297 29.8204 110.537 29.8204C110.042 29.8204 109.565 29.9125 109.105 30.0968C108.656 30.2695 108.178 30.5227 107.672 30.8566L107.12 29.7859C107.707 29.3829 108.294 29.0836 108.88 28.8879C109.467 28.6806 110.077 28.577 110.71 28.577C111.86 28.577 112.769 28.8994 113.437 29.5441C114.104 30.1773 114.438 31.0639 114.438 32.2037V36.0204C114.438 36.2046 114.472 36.3428 114.541 36.4349C114.622 36.5155 114.748 36.5615 114.921 36.573V37.7474C114.771 37.7704 114.639 37.7877 114.524 37.7992C114.42 37.8107 114.334 37.8165 114.265 37.8165C113.908 37.8165 113.638 37.7186 113.454 37.5229C113.281 37.3271 113.184 37.1199 113.161 36.9012L113.126 36.3312C112.735 36.8378 112.223 37.2293 111.59 37.5056C110.957 37.7819 110.33 37.9201 109.709 37.9201C109.11 37.9201 108.575 37.7992 108.104 37.5574C107.632 37.3041 107.264 36.9702 106.999 36.5558C106.735 36.1298 106.602 35.6577 106.602 35.1396ZM112.47 35.7786C112.608 35.6174 112.718 35.4562 112.798 35.295C112.879 35.1223 112.919 34.9784 112.919 34.8633V33.7407C112.562 33.6026 112.188 33.499 111.797 33.4299C111.406 33.3493 111.02 33.309 110.641 33.309C109.87 33.309 109.243 33.4644 108.76 33.7753C108.288 34.0746 108.052 34.4891 108.052 35.0187C108.052 35.3066 108.127 35.5886 108.276 35.8649C108.437 36.1298 108.667 36.3485 108.967 36.5212C109.277 36.6939 109.657 36.7803 110.106 36.7803C110.577 36.7803 111.026 36.6882 111.452 36.5039C111.878 36.3082 112.217 36.0664 112.47 35.7786Z" fill="#091326"/>
    <path d="M101.407 37.9201C100.67 37.9201 100.014 37.7359 99.439 37.3674C98.8637 36.999 98.4092 36.5327 98.0756 35.9686V41.4259H96.5568V28.7324H97.903V30.4249C98.2597 29.8722 98.7256 29.429 99.3009 29.0951C99.8762 28.7497 100.503 28.577 101.182 28.577C101.803 28.577 102.373 28.7036 102.891 28.9569C103.409 29.2102 103.857 29.5556 104.237 29.9931C104.617 30.4306 104.91 30.9315 105.117 31.4956C105.336 32.0483 105.445 32.6297 105.445 33.2399C105.445 34.0919 105.272 34.8748 104.927 35.5886C104.594 36.3025 104.122 36.8724 103.512 37.2984C102.902 37.7128 102.2 37.9201 101.407 37.9201ZM100.941 36.6076C101.389 36.6076 101.792 36.5155 102.149 36.3312C102.517 36.1355 102.827 35.8822 103.081 35.5714C103.345 35.249 103.547 34.8863 103.685 34.4833C103.823 34.0804 103.892 33.6659 103.892 33.2399C103.892 32.7909 103.811 32.3649 103.65 31.9619C103.501 31.559 103.282 31.202 102.994 30.8912C102.718 30.5803 102.39 30.3385 102.011 30.1658C101.642 29.9816 101.24 29.8895 100.802 29.8895C100.526 29.8895 100.239 29.9413 99.9395 30.0449C99.6519 30.1486 99.3757 30.2982 99.1111 30.494C98.8465 30.6782 98.6221 30.8912 98.438 31.133C98.2539 31.3747 98.1331 31.6338 98.0756 31.9101V34.4833C98.2481 34.8748 98.4783 35.2317 98.7659 35.5541C99.0536 35.8765 99.3872 36.1355 99.7669 36.3312C100.147 36.5155 100.538 36.6076 100.941 36.6076Z" fill="#091326"/>
    <path d="M93.4783 28.0589C93.3402 27.8977 93.1561 27.7423 92.926 27.5926C92.6959 27.4429 92.437 27.3105 92.1493 27.1954C91.8617 27.0687 91.5453 26.9709 91.2001 26.9018C90.8664 26.8212 90.5155 26.7809 90.1473 26.7809C89.2038 26.7809 88.5078 26.9594 88.059 27.3163C87.6103 27.6732 87.3859 28.1625 87.3859 28.7842C87.3859 29.2217 87.501 29.5671 87.7311 29.8204C87.9612 30.0737 88.3121 30.281 88.7839 30.4422C89.2671 30.6033 89.8769 30.7703 90.6133 30.943C91.4647 31.1272 92.2011 31.3517 92.8224 31.6165C93.4437 31.8813 93.9212 32.2382 94.2549 32.6873C94.5886 33.1248 94.7554 33.712 94.7554 34.4488C94.7554 35.036 94.6404 35.5483 94.4102 35.9858C94.1916 36.4118 93.881 36.7687 93.4783 37.0566C93.0756 37.3329 92.6038 37.5401 92.063 37.6783C91.5223 37.805 90.9355 37.8683 90.3027 37.8683C89.6813 37.8683 89.0715 37.805 88.4732 37.6783C87.8864 37.5401 87.3284 37.3444 86.7991 37.0911C86.2699 36.8378 85.7751 36.5212 85.3149 36.1413L86.057 34.8287C86.2411 35.0245 86.477 35.2202 86.7646 35.4159C87.0638 35.6001 87.3974 35.7728 87.7656 35.934C88.1453 36.0952 88.5538 36.2276 88.991 36.3312C89.4282 36.4234 89.8769 36.4694 90.3372 36.4694C91.2116 36.4694 91.8905 36.314 92.3737 36.0031C92.8569 35.6807 93.0986 35.2144 93.0986 34.6042C93.0986 34.1437 92.9605 33.7753 92.6844 33.499C92.4197 33.2226 92.0228 32.9924 91.4935 32.8082C90.9642 32.6239 90.3199 32.4397 89.5605 32.2555C88.7321 32.0483 88.036 31.8238 87.4722 31.582C86.9084 31.3287 86.4827 31.0006 86.1951 30.5976C85.9189 30.1946 85.7809 29.6708 85.7809 29.026C85.7809 28.2431 85.9707 27.5811 86.3504 27.04C86.7301 26.4988 87.2536 26.0901 87.921 25.8138C88.5883 25.5375 89.3419 25.3993 90.1818 25.3993C90.7341 25.3993 91.2461 25.4569 91.7179 25.572C92.2011 25.6871 92.6498 25.8483 93.064 26.0556C93.4783 26.2628 93.858 26.5103 94.2031 26.7982L93.4783 28.0589Z" fill="#091326"/>
    <path d="M93.0974 18.7503V11.7535H93.985V15.622L97.5945 11.7436H98.5512L95.7405 14.8325L98.709 18.7503H97.7129L95.1783 15.3654L93.985 16.6088V18.7503H93.0974Z" fill="#091326"/>
    <path d="M88.5423 18.7997C87.9834 18.7997 87.5133 18.7043 87.132 18.5135C86.7506 18.3161 86.4449 18.053 86.2148 17.724C85.9847 17.3885 85.817 17.0102 85.7118 16.5891C85.6066 16.1681 85.554 15.7338 85.554 15.2865V11.7436H86.4416V15.2865C86.4416 15.6286 86.4745 15.9641 86.5403 16.2931C86.6126 16.6154 86.7276 16.9049 86.8854 17.1615C87.0432 17.4181 87.2569 17.622 87.5265 17.7733C87.796 17.9247 88.1313 18.0003 88.5324 18.0003C88.94 18.0003 89.2786 17.9247 89.5482 17.7733C89.8178 17.6154 90.0314 17.4082 90.1892 17.1516C90.347 16.8885 90.4588 16.5957 90.5246 16.2733C90.5969 15.9509 90.633 15.622 90.633 15.2865V11.7436H91.5206V15.2865C91.5206 15.7601 91.4647 16.2108 91.353 16.6385C91.2478 17.0595 91.0768 17.4312 90.8401 17.7536C90.6035 18.076 90.2944 18.3326 89.9131 18.5234C89.5383 18.7076 89.0814 18.7997 88.5423 18.7997Z" fill="#091326"/>
</svg>
